<svg width="21" height="38" viewBox="0 0 21 38" xmlns="http://www.w3.org/2000/svg">
<path d="M20.1927 0.00762497L15.3073 -0.000213623C9.81878 -0.000213623 6.27186 3.63885 6.27186 9.27128V13.5461H1.35985C0.935394 13.5461 0.591675 13.8902 0.591675 14.3146V20.5083C0.591675 20.9328 0.935786 21.2765 1.35985 21.2765H6.27186V36.9051C6.27186 37.3295 6.61557 37.6733 7.04003 37.6733H13.4488C13.8733 37.6733 14.217 37.3291 14.217 36.9051V21.2765H19.9603C20.3847 21.2765 20.7284 20.9328 20.7284 20.5083L20.7308 14.3146C20.7308 14.1108 20.6497 13.9156 20.5058 13.7714C20.362 13.6272 20.166 13.5461 19.9622 13.5461H14.217V9.92227C14.217 8.18054 14.632 7.29634 16.9009 7.29634L20.1919 7.29517C20.6159 7.29517 20.9597 6.95105 20.9597 6.52699V0.775807C20.9597 0.352131 20.6163 0.00840883 20.1927 0.00762497Z"/>
</svg>
